<?xml version="1.0"?>
<svg xmlns="http://www.w3.org/2000/svg" id="Capa_1" viewBox="0 0 427 113">
  <style>.st1{fill-rule:evenodd;clip-rule:evenodd;fill:#fff}.st2{fill:none;stroke:#fff;stroke-width:0;stroke-linecap:square;stroke-miterlimit:10}.st3{fill:#fff}.st4{fill:none;stroke:#fff;stroke-width:.25;stroke-linecap:square;stroke-miterlimit:10}</style>
  <path fill="#666365" d="M309.3 0H427v113H309.3V0z"/>
  <path class="st1" d="M372.8 58v.3l-.3.5.3.2.7-.7v.2l-1 1.3v-1.5l.3-.3z"/>
  <path class="st2" d="M372.8 58v.3l-.3.5.3.2.7-.7v.2l-1 1.3v-1.5l.3-.3z"/>
  <path class="st1" d="M374.3 58.3v.2l-.5.8-.5.7v-.2l.2-.3.8-1.2z"/>
  <path class="st2" d="M374.3 58.3v.2l-.5.8-.5.7v-.2l.2-.3.8-1.2z"/>
  <path class="st1" d="M374.8 58.8h.2l-.5 1-.2.5h-.3l.3-.8.5-.7z"/>
  <path class="st2" d="M374.8 58.8h.2l-.5 1-.2.5h-.3l.3-.8.5-.7z"/>
  <path class="st1" d="M372.3 61.5h.3v-.3l-.3.3zm-.8.5l1.3-1.3h.3l-.5 1.8-.3-.3.3-.5h-.3l-.5.3h-.3z"/>
  <path class="st2" d="M372.3 61.5h.3v-.3l-.3.3zm-.8.5l1.3-1.3h.3l-.5 1.8-.3-.3.3-.5h-.3l-.5.3h-.3z"/>
  <path class="st1" d="M371.3 61.3l.5-.5v.2l-.3.3h-.2zm-.5.7l.3-.5.3-.5.3-.5h.6v.8l-.3.3h-.5l-.3.3-.4.1z"/>
  <path class="st2" d="M371.3 61.3l.5-.5v.2l-.3.3h-.2zm-.5.7l.3-.5.3-.5.3-.5h.6v.8l-.3.3h-.5l-.3.3-.4.1z"/>
  <path class="st1" d="M373.5 61.5l-.3.5.5-.3v-.3h-.2v.1zm0-.5l-.8 1.8.3-.5h.3v.3l-.3.4.3.3v-.8l.3-.3.3-.3.3-.3-.3-.5-.4-.1z"/>
  <path class="st2" d="M373.5 61.5l-.3.5.5-.3v-.3h-.2v.1zm0-.5l-.8 1.8.3-.5h.3v.3l-.3.4.3.3v-.8l.3-.3.3-.3.3-.3-.3-.5-.4-.1z"/>
  <path class="st1" d="M376.8 60l-.3-.2.5.2.5.5-.5-.2-.2.2-.3.5-.5.5.8-1.5z"/>
  <path class="st2" d="M376.8 60l-.3-.2.5.2.5.5-.5-.2-.2.2-.3.5-.5.5.8-1.5z"/>
  <path class="st1" d="M377.8 60.8l.2.2-.2.3-.3.7-.5.5.8-1.7z"/>
  <path class="st2" d="M377.8 60.8l.2.2-.2.3-.3.7-.5.5.8-1.7z"/>
  <path class="st1" d="M375.5 62.5v-.3l-.3.3-.2.5-.3.5h.6l.3-.3.3-.8h-.4v.1zm-.2-.5l-.5 1-.5.8h1.2l.3-.5.3-.8-.3-.3-.5-.2z"/>
  <path class="st2" d="M375.5 62.5v-.3l-.3.3-.2.5-.3.5h.6l.3-.3.3-.8h-.4v.1zm-.2-.5l-.5 1-.5.8h1.2l.3-.5.3-.8-.3-.3-.5-.2z"/>
  <path class="st1" d="M376.3 63.5v-.3.3zm-1 .8l1.3-1.5-.5 2v-1.1h-.3l-.3.5h-.2v.1z"/>
  <path class="st2" d="M376.3 63.5v-.3.3zm-1 .8l1.3-1.5-.5 2v-1.1h-.3l-.3.5h-.2v.1z"/>
  <path class="st1" d="M377.5 63.8v-.5h-.2l-.3.2V65h-.5v-.5l-.2.3.2.2.3.3.2-.5.3-.3v-1.2l.2.2v.3z"/>
  <path class="st2" d="M377.5 63.8v-.5h-.2l-.3.2V65h-.5v-.5l-.2.3.2.2.3.3.2-.5.3-.3v-1.2l.2.2v.3z"/>
  <path class="st3" d="M379.8 69v-.2l.2.2h-.2z"/>
  <path class="st2" d="M379.8 69v-.2l.2.2h-.2z"/>
  <path class="st1" d="M380.8 67.3h.2l.8.5.2-.3v-.2h-.2l-.3.2-.2-.2V67l-.5-.2h-.5l-.3.2-.2.3 1 .5.7.5-.7-.8-.5-.2h-.3l-.2-.3.5-.2.2.2.3.3z"/>
  <path class="st2" d="M380.8 67.3h.2l.8.5.2-.3v-.2h-.2l-.3.2-.2-.2V67l-.5-.2h-.5l-.3.2-.2.3 1 .5.7.5-.7-.8-.5-.2h-.3l-.2-.3.5-.2.2.2.3.3z"/>
  <path class="st1" d="M382.3 66v-.2h.2l.5.5-.5.7-.7-.7-.5-.5-.5-.3h.2l.5.3.5.2.5.8.3-.3-.3-.5h-.2z"/>
  <path class="st2" d="M382.3 66v-.2h.2l.5.5-.5.7-.7-.7-.5-.5-.5-.3h.2l.5.3.5.2.5.8.3-.3-.3-.5h-.2z"/>
  <path class="st1" d="M382.3 64.3l.2-.3.5-.2.3.2.2.5h.3l-.3.3h-.2v-.3l-.3-.2-.2-.3-.3.3.3.2.2.3.3.5.2.7-.5-.7-.7-.8v-.2z"/>
  <path class="st2" d="M382.3 64.3l.2-.3.5-.2.3.2.2.5h.3l-.3.3h-.2v-.3l-.3-.2-.2-.3-.3.3.3.2.2.3.3.5.2.7-.5-.7-.7-.8v-.2z"/>
  <path class="st1" d="M386 63h.5l.5-.2.3.5v1l.2.5-.2.2-.3-.2v-1.5l-.2-.3-.3.3v1.5l-.2-.3V64l-.3-.7V63z"/>
  <path class="st2" d="M386 63h.5l.5-.2.3.5v1l.2.5-.2.2-.3-.2v-1.5l-.2-.3-.3.3v1.5l-.2-.3V64l-.3-.7V63z"/>
  <path class="st1" d="M388.8 63.5h.2V63l-.2-.2-.5.5v.5l.2.2.3.3-.5.5v-.3h-.3l.3.5.5-.5.2-.5-.2-.2-.3-.3v-.2l.3-.3v.5z"/>
  <path class="st2" d="M388.8 63.5h.2V63l-.2-.2-.5.5v.5l.2.2.3.3-.5.5v-.3h-.3l.3.5.5-.5.2-.5-.2-.2-.3-.3v-.2l.3-.3v.5z"/>
  <path class="st1" d="M384.8 63.3l-.5.2v.5l.2.8.5.5V65l-.2-.2v-.5l-.3-.5v-.5h.3z"/>
  <path class="st2" d="M384.8 63.3l-.5.2v.5l.2.8.5.5V65l-.2-.2v-.5l-.3-.5v-.5h.3z"/>
  <path class="st1" d="M385 63l.5.8.3.7-.3.3v.2-.7L385 63z"/>
  <path class="st2" d="M385 63l.5.8.3.7-.3.3v.2-.7L385 63z"/>
  <path class="st1" d="M390 63.8l-.5.7v.8h.3v-.5l.2-.5.3-.5.5-.3h-.3l-.5.3z"/>
  <path class="st2" d="M390 63.8l-.5.7v.8h.3v-.5l.2-.5.3-.5.5-.3h-.3l-.5.3z"/>
  <path class="st1" d="M391 63.8v.7l-.5.8-.5.2.3-.5.2-.2.3-.8.2-.2z"/>
  <path class="st2" d="M391 63.8v.7l-.5.8-.5.2.3-.5.2-.2.3-.8.2-.2z"/>
  <path class="st3" d="M391.5 65.5h.3v.3l-.3-.3z"/>
  <path class="st2" d="M391.5 65.5h.3v.3l-.3-.3z"/>
  <path class="st1" d="M378.8 70h2l-.3.3h-1.7V70z"/>
  <path class="st2" d="M378.8 70h2l-.3.3h-1.7V70z"/>
  <path class="st1" d="M379 70.8h1.5v.2H379v-.2z"/>
  <path class="st2" d="M379 70.8h1.5v.2H379v-.2z"/>
  <path class="st1" d="M379 71.8h1.5v.2h-1.2l-.3-.2z"/>
  <path class="st2" d="M379 71.8h1.5v.2h-1.2l-.3-.2z"/>
  <path class="st1" d="M379.3 72.5h.7l.8-.2v.2h-.3l-.7.3h-.5v-.3z"/>
  <path class="st2" d="M379.3 72.5h.7l.8-.2v.2h-.3l-.7.3h-.5v-.3z"/>
  <path class="st1" d="M380.5 73.5h-.8l-.3.3v.5h.3l.8-.3.3-.3v-.3h-.3v.1zm-1.2 0l.8-.3h.5l.5.3.3.3-.5.5-.8.3-.5.3-.3-.5v-.9z"/>
  <path class="st2" d="M380.5 73.5h-.8l-.3.3v.5h.3l.8-.3.3-.3v-.3h-.3v.1zm-1.2 0l.8-.3h.5l.5.3.3.3-.5.5-.8.3-.5.3-.3-.5v-.9z"/>
  <path class="st1" d="M392.3 67v-.2l-.3.2v.3l.3.2h.2l.5-.2v-.8l.3-.2.2-.3v.5h.3V66h-.8l-.2.3v.7l-.3.3h-.2V67z"/>
  <path class="st2" d="M392.3 67v-.2l-.3.2v.3l.3.2h.2l.5-.2v-.8l.3-.2.2-.3v.5h.3V66h-.8l-.2.3v.7l-.3.3h-.2V67z"/>
  <path class="st1" d="M393 68.8l.8-.5.5-.3v-.5h.2v.3l.3.2h.2v.3h-.7l-.5.2-.5.3h-.3z"/>
  <path class="st2" d="M393 68.8l.8-.5.5-.3v-.5h.2v.3l.3.2h.2v.3h-.7l-.5.2-.5.3h-.3z"/>
  <path class="st1" d="M394.5 70.3l-.5.2h-.5l.3-.2.5-.3.7-.2.3.5h.2V70l-.2-.2H394l-.5.2v.3l.3.2.5.3h.5l-.3-.5z"/>
  <path class="st2" d="M394.5 70.3l-.5.2h-.5l.3-.2.5-.3.7-.2.3.5h.2V70l-.2-.2H394l-.5.2v.3l.3.2.5.3h.5l-.3-.5z"/>
  <path class="st1" d="M393.5 71.8l.8.2h1.2v1l-.5.3-.5-.3-.7-.2-.5.2v-.5h.5l.5.3.7.2h.3v-.5l-1-.2-.8-.3v-.2z"/>
  <path class="st2" d="M393.5 71.8l.8.2h1.2v1l-.5.3-.5-.3-.7-.2-.5.2v-.5h.5l.5.3.7.2h.3v-.5l-1-.2-.8-.3v-.2z"/>
  <path class="st1" d="M393 73.8h1.3l.2.5.5.5-.5-.3-.2-.2-.3-.3h-1v-.2z"/>
  <path class="st2" d="M393 73.8h1.3l.2.5.5.5-.5-.3-.2-.2-.3-.3h-1v-.2z"/>
  <path class="st1" d="M393 74.3h-.2l.7.7h.5l.5.3.3-.3h-.8l-1-.5v-.2z"/>
  <path class="st2" d="M393 74.3h-.2l.7.7h.5l.5.3.3-.3h-.8l-1-.5v-.2z"/>
  <path class="st3" d="M392.8 76v-.2l.2.2h-.2z"/>
  <path class="st2" d="M392.8 76v-.2l.2.2h-.2z"/>
  <path class="st1" d="M392.5 77.3l.3-.3.2.3-.2.2h-.5v.3l-.3.2v-.5l-.2-.5-.3-.2-.5-.3.3.8.2.2v.3l.3.2-.5-.2-.3-.3-.2-1v-.2h.7l.5.5.3.5h.2z"/>
  <path class="st2" d="M392.5 77.3l.3-.3.2.3-.2.2h-.5v.3l-.3.2v-.5l-.2-.5-.3-.2-.5-.3.3.8.2.2v.3l.3.2-.5-.2-.3-.3-.2-1v-.2h.7l.5.5.3.5h.2z"/>
  <path class="st1" d="M389 77.5l.5-.2-.2.2h-.3z"/>
  <path class="st2" d="M389 77.5l.5-.2-.2.2h-.3z"/>
  <path class="st1" d="M389.8 78.3v.2l.5-.2h-.5z"/>
  <path class="st2" d="M389.8 78.3v.2l.5-.2h-.5z"/>
  <path class="st1" d="M389.8 79.5v-.2h.5l.2-.3v-.7l-.2-.5-.3-.3-.2-.2h.2l.5.7.3.8v.2l-.3.3-.7.2z"/>
  <path class="st2" d="M389.8 79.5v-.2h.5l.2-.3v-.7l-.2-.5-.3-.3-.2-.2h.2l.5.7.3.8v.2l-.3.3-.7.2z"/>
  <path class="st1" d="M387.5 78.5v-.7l.3-.3h.5v.8l.2 1.5-.2-.3-.3-1.7h-.2v.5l-.3.2z"/>
  <path class="st2" d="M387.5 78.5v-.7l.3-.3h.5v.8l.2 1.5-.2-.3-.3-1.7h-.2v.5l-.3.2z"/>
  <path class="st3" d="M386.3 78.8v-.3l.2.3h-.2z"/>
  <path class="st2" d="M386.3 78.8v-.3l.2.3h-.2z"/>
  <path class="st1" d="M385.8 77.5l-.5.8-.3 1v.2l.3-.5.2-.5V78l.3-.5z"/>
  <path class="st2" d="M385.8 77.5l-.5.8-.3 1v.2l.3-.5.2-.5V78l.3-.5z"/>
  <path class="st1" d="M385 77.3h-.2l-.3.7.3-.2.2-.5z"/>
  <path class="st2" d="M385 77.3h-.2l-.3.7.3-.2.2-.5z"/>
  <path class="st1" d="M384.8 78l-.5.5v.8l.5.2-.3-.7v-.3l.3-.5z"/>
  <path class="st2" d="M384.8 78l-.5.5v.8l.5.2-.3-.7v-.3l.3-.5z"/>
  <path class="st1" d="M383 78.5h-.2l-.3-.2V78h-.2l.2.5h.8l.5-.7.2-.3v-.7l-.2-.3h-.3l-.2-.2.2.5h.3v.7l-.3.3-.2-.3-.3-.2v.5h.5l-.5.5v.2z"/>
  <path class="st2" d="M383 78.5h-.2l-.3-.2V78h-.2l.2.5h.8l.5-.7.2-.3v-.7l-.2-.3h-.3l-.2-.2.2.5h.3v.7l-.3.3-.2-.3-.3-.2v.5h.5l-.5.5v.2z"/>
  <path class="st1" d="M380.3 76.5h.7l.5-.2v.5l-.2.5h.2V77l.3-.5v-.2l.2-.5h.3l.2.2v.3l.3-.3-.3-.2-.2-.3-.5.3-.5.5h-.5l-.3.2h-.2z"/>
  <path class="st2" d="M380.3 76.5h.7l.5-.2v.5l-.2.5h.2V77l.3-.5v-.2l.2-.5h.3l.2.2v.3l.3-.3-.3-.2-.2-.3-.5.3-.5.5h-.5l-.3.2h-.2z"/>
  <path class="st1" d="M368.8 44.5l-.3.3h.3v-.3zm-.5 0l-.3-.3v.3h.3zm.7 0v-.3l-.3-.3h-.7l-.3.3.5.5h.3l.5-.2z"/>
  <path class="st2" d="M368.8 44.5l-.3.3h.3v-.3zm-.5 0l-.3-.3v.3h.3zm.7 0v-.3l-.3-.3h-.7l-.3.3.5.5h.3l.5-.2z"/>
  <path class="st1" d="M370.8 44.8h-.3v.2l.3-.2zm-.5 0v-.3l-.3.3h.3zM369 46h.3l.3-.3v-.5l.3-.8.3-.3h.8l.3.5-.3.3h-1l-.3.8-.3.3-.3.3h-.1V46z"/>
  <path class="st2" d="M370.8 44.8h-.3v.2l.3-.2zm-.5 0v-.3l-.3.3h.3zM369 46h.3l.3-.3v-.5l.3-.8.3-.3h.8l.3.5-.3.3h-1l-.3.8-.3.3-.3.3h-.1V46z"/>
  <path class="st1" d="M368.5 46.8h.8l.2.2v.3l-.5-.3h-.2l-.3-.2z"/>
  <path class="st2" d="M368.5 46.8h.8l.2.2v.3l-.5-.3h-.2l-.3-.2z"/>
  <path class="st1" d="M369 47.3h-.2v.2h.2v-.2z"/>
  <path class="st2" d="M369 47.3h-.2v.2h.2v-.2z"/>
  <path class="st4" d="M381.5 71.3l.3-1 .2-1 .5-1 .8-.8.7-.5.8-.5 1-.5h1.2l1 .3 1 .2 1 .5.8.5.7.8.5 1 .3 1v2.2l-.3 1-.5.8-.7.7-.8.8-1 .5-1 .2-1 .3-1-.3-1.2-.2-.8-.5-.7-.8-.8-.7-.5-.8-.2-1-.3-1.2zM358 48.3l.5-3.3.8-3 1-2.7.7-2.3 1.8-4 1.7-2.7 1.8-2 1.5-1.5.7-1 .5-.8 1.3 1.5 1.2 1.5 1.8 2.5 1.7 3.3 1.5 4 1.8 4.7 1 5.8"/>
  <path class="st4" d="M357 47.8l.8-3.3.7-3 1.8-5 2-3.7 1.7-3.3 1.8-2.2 1.5-1.5L369 24l1.5 1.5 1.5 1.8 1.8 2.5 1.7 3.2 2 4.3 1.5 5 .5 2.7.8 3M340.5 48.3l1.5-4.5 1.8-4.5 1-2 1.2-1.8 1.3-1.7 1.5-1.8.7.5.8 1 1.2 1.3 1 2.2 1.5 2.8 1.3 3.7 1.2 4.8"/>
  <path class="st4" d="M339.8 48l.7-2.7 1-2.5.8-2.3 1.2-2.2 1.3-2 1.2-2 1.3-1.8 1.5-1.7 1 1 1 1 1.2 1.7 1.3 2.3 1.5 3 1.2 3.7 1.3 4.3M354.3 48.5h7.2l.3.3v.2l-.3.5-.2.3h-7l-.5-.8v-.2l.2-.3h.3zM357.3 49.8l-.3 4M357 52l.5-.7.5-.8.8-.5h1.5l.2.3.3.2v.5l-.3.8-.5.2-.5-.2-.2-.3v-.2l.2-.3M354.3 50.5l.2-.5.8-.2.5.2.5.5.5.5.2.5M356.8 53.3v-.8l-.5-.7h-.8l-.2-.8.2.3M356.3 54.3v-.8l.2-.2h.5v.5l-.2.5-.3.7M357 54l.3-.5h.5v.5l-.5 1.3M357.8 54.3h.2v.5"/>
  <path class="st4" d="M357 53.5l.5-.7.5-.5.5-.3h.8l.5.3v.2l-.3.5h-.5v-.2l-.5.2v.5l.3.8-.3.2-.2.5v1l.5 2-.5-.2-.5-.5-.8-.8-1.2-1.7-.5-.8-.5-1h.5"/>
  <path class="st4" d="M355 53.5v1.3h.8M358.3 56.3l.5-.3.2-.2.8.2.5.5.5 1 .2.8.8 1.7M360.3 56.5h1l.5-.7.5-1 .2-1.3.5-.7 1.3-2 .7-.8.8-.2.5-.5.2-.3h.5M361.3 56.5l.5.5.5.5 1 1.3.2.7.5.3"/>
  <path class="st4" d="M363.3 61.8l.5-.5.2-1 .8-3 1-7.5"/>
  <path class="st4" d="M363.3 62l.7.3h.5l.3-.5.5-1.3.7-2.7.8-4.8.2-2.2v-1.5M367 50.8l.5.2h1.3l1-.2"/>
  <path class="st4" d="M366.8 52.3l.7.2.8.3 1-.3.5-.2M367.3 52.8l.5 1.7.5 1.8M370 52.3l-.2 1-.5 1.5-.8 1.7M367.8 58l-.3-.5V57l.3-.2.5-.3.7.3.3.5-.3.5-.2.5.2-.3h.8l.2.3v.5l-.2.5-.3.2h-.7v1.3h-.3l-.5.2-.5-.5-.2-.5.2-.5.3-.2-.5.2h-.3l-.5-.2-.2-.8.2-.2.3-.3.5-.2.5.2zM369.8 48.8l.2 1.7v1.3l.3 2.7.2 4.5.3 1.3"/>
  <path class="st4" d="M369.8 49h.2l.3.3.5.7.5 3.3.2 1.2v1.8l.3.7.2.8M370.5 49.5l1.3.5.7.5.3.5.5.3.2.7.5.8.8 1.7.2 2.3"/>
  <path class="st4" d="M378.3 58.5l1.5 1.5-2.8 6.3-.5-.3-.5-.5-.5-.2-.7-.8-.8-.2-.7.2-.3-.2-.2-.5-.8-.5-1-.3h-.7l-.8-.2 3.8-6.8.2.3.5.2 1.3.3"/>
  <path class="st4" d="M376.5 56.3l-.2-.3-.5.3-.3.5-.2 1.2.2.5v.5M377.3 56.5l-.5-.5-.3.3v.2l-.5 1.3-.2 1.2.2.3.3.2"/>
  <path class="st4" d="M377.8 57v-.5l-.5-.2v.2l-.3.3-.2 1.2-.3 1.3v.2h.5v-.2M378.3 57.8v-.5l-.3-.3-.5 1-.2 1v.3h.2l.3-.3.5-1M378.3 58.5l.2-.7M378.5 55.3v3.2M381 55v9M370 63l.8.3.7.5 1.3.7 1.5.5 1.5.5M378 63.8l.5.5v.5l-.2.7-.3.3h-.5M357.8 57.5V61h1l.5.3.7.7 1 1.8.5.5.5.2 1.8.5.7.3.5.5 1 .5 1.3.2 2.5.3h.7l.8-.3 1.2-.7 1-.5h.8l.5.2"/>
  <path class="st4" d="M365.3 66l.7 1.5.5.8.5.2h.5l.8-.2.7-.3.5-.7.8-.5"/>
  <path class="st4" d="M365.8 67.3l1 1.7.5 1.8.7 2 1 2.2.8.8.7.7 1 .3 1 .2.3-.2v-.3"/>
  <path class="st4" d="M367.3 70h.7l.8-.2.5-.5.7-1 .8-1.3 1.2-.7M368 72h.5l.5-.2.3-.3.5-.5 1.5-3 1.5-2.2"/>
  <path class="st4" d="M373.8 65.5l-1.3.8-.5 1-.5 1.2-.2 1.3-1 2.2-1.3 2.3M375.3 65.5l.7.5.3 1-.3 2.5-1 2-.7 1.3-1.8 2.2 1-.2 1 .2h.5l.5.3.3.5.2.7v.3l-.5.5-.7.2h-.8l-.5-.2-.7-.8M363 64.8l-1 .2-.7.5-.5.8-.3 1.2.3 1.3.5.7 1.5 1.3 2.5 2.5 1.2 1.2.5 1 .3.8-1-.5-.8-.3H364l-.5.3-.5.5-.2.5v.5l.5.5.2.2h.3l.5-.2v-.5l-.3-.5-.5-.5"/>
  <path class="st4" d="M364.3 77.3h1.2l.5-.3.5.3h.3l.5.5.7.5 1.3.2 1.2-.5.8-.2.2-.5"/>
  <path class="st4" d="M364.3 77.5v.8l-1 1.2-.5.8-.3 1h-.2l-.5.2-.8.8v.2l.3.3.2-.3h1.5l.8-.5 1-1.2 1-.8.5-.5.2-.7-.5-.5-.5-.8v-.2M370.3 78l-.3.8-.2.5v.2l.2.3.5.2.5.3.5.7.5.8 1 .5h1.8l-1-1.8-1-.7-.8-.8v-1l.3-1"/>
  <path class="st4" d="M372.3 79.3l.5.2h.7l.3-.2.5-.3h.5l.5.3.2.2.3.8"/>
  <path class="st4" d="M374.8 82.3l.2-.5v-2.3M376.3 68.3v1l-.3 2.5-.2 2.7v.8M375.5 77.3v3l.5-.5h.5l.3-.3.2.3.3.2h1l.5-.5.5-.2.7-.3-2-13.2"/>
  <path class="st4" d="M377 66.3l-.2 5v6.2M377.3 66v6.5l.5 1.3v3l.5 1.2M377.5 66l.5 3v3l1 5M375.8 80.5v.8l.2.2h1.5v-1.2M360.8 65.8l-.3-.5-.2-.3h-.3l-.5.3-.5.5-.2 1.5-.3 2.2-.2 2.5-.8 3.8-.5 2-.5 1.7.3-.2.5-.3h.5l.5.3.2.2.5.3.8-.5.2-.3h1l.3.3.2.2.3.3.7-.3.8-.5"/>
  <path class="st4" d="M358.5 77.3v-.8l.3-2.2v-2.5l.2-1.5v-4.5l.3 1.7.5 2.3v7.7M360.8 68.8V70l.2 2.5.5 2.8.3 3v3M359 79.8v1.5l.5.2h1.3v-2.2M356 78.5v2.8M346.5 81.5h11.8v-2M340.3 71.3l.2-1.8.5-1.7.8-1.5L343 65l1.3-1.2 1.5-.8 1.7-.5 1.8-.2 1.7.2 1.8.5 1.5.8 1.2 1.2 1 1.3 1 1.5.5 1.7.3 1.8-.3 2-.5 1.5-.7 1.7-1.3 1.3-1.2 1-1.5 1-1.8.5-1.7.2-1.8-.2-1.7-.5-1.5-1-1.3-1-1.2-1.3-.8-1.7-.5-1.5-.2-2z"/>
  <path class="st4" d="M357.5 76.5l-.7 1-.8 1-1 .8-1 .5-1 .7-1.2.3-1.3.2h-3l-2-.7-1.5-.8-1.5-1.2-1.2-1.5-.8-1.8-.5-1.7-.2-2 .2-2 .5-1.8.8-1.7 1.2-1.3 1.5-1.2 1.5-1 2-.5 1.8-.3 1.7.3 1.5.5 1.5.5 1.5 1 1 1 1 1.2.8 1.5.2 1.8"/>
  <path class="st4" d="M349 70.8v-2.3l.3-1 .5-.7.2-.8.5-.5.8-.5.7-.2h.8l.7.2.5.5.8.5 1 1.5.2.8.3 1v2.2l-.3 2.3-.7 2-1 2-2 .5-2 .2-2.3-.2-2-.8-1.2-.5-.8-.5-.7-.7-.5-.8-.3-.7-.2-.8v-.7l.2-.8.3-.7.7-.5.8-.3.7-.2h2l2 .5z"/>
  <path class="st4" d="M343.3 74l1 .3 1 .2h.2v-.2l.5-.5.8-.5h.2v-1.8l-.2-.2-.3.2v.8l-.7.2-.3-.2h-.7v.7h.2l-.2.5-.3.3h-.7l-.5.2zM346 76.3l1 .2 1 .3.3-.3v-.2l.5-.3.7-.5h.3v-1.7l-.3-.3-.2.3v.7l-.8.3-.2-.3-.3-.2h-.5v.7l.3.3-.3.5-.2.2h-.8l-.5.3zM350.3 76.5l1 .3h1.2v-.3l.5-.5.8-.2h.2V74l-.2-.2-.3.2-.2.3.2.5-.7.2-.3-.2-.2-.3h-.5v.8l.2.2-.2.5h-.3l-.2.3-.5-.3-.5.5zM351.3 72l.7.5h1.3l.2-.2.3-.5.7-.3.3-.2v-1.8l-.3-.2-.2.2v.8l-.8.5-.2-.5h-.8v.5l.3.2v.3l-.3.5-.2.2-.8-.2-.2.2zM349.8 68.8l1 .2.7.3h.5V69l.5-.5.5-.2.5-.3v-1l-.2-.7V66l-.3.3-.2.2.2.5-.7.3-.3-.3h-.7v.8l.2.2-.2.3-.3.2h-.7l-.5.3zM343.5 70l6.3-5M343.3 69.5l6-4.7M343.3 70l-.3-.5-.2-.5-.5-.2h-.5l.5-.5h1l.5-.3.7-.5.5-.5.3-.5-.5-.2-.5-.3h.5l-.3-.2V65h.5l.5.5V65h.5l-.2 1 1.2-.5 1-1 .3-.7.2-.3.5-.2v.5l.3.7.5.5"/>
  <path class="st4" d="M344.3 68v-.2l.2.2-.2.3V68z"/>
  <path class="st4" d="M344.3 68v-.2l.2.2-.2.3V68zM345.8 66.8h.2v.2l-.2-.2zM347.3 65.5h.2v.3l-.2-.3zM356 55.3v9.2M358 61l.3 1.5V64l-.3 3.3M357.8 53.8l.2-.3h.5M352.8 50l.2-.2v-.3l.3.3.2.2-.2.3h-.3l-.2-.3zM353.5 49.8l2.8 3.5M353 50l3 4M349 46.5l1.5-1.2 2.3 2.5-1.5 1.5-2.3-2.8zM349.3 46.8l1.5-1.3M349.8 46.5l1.7 2.3M350 46.3l2 2M350.5 45.8l2 2.2M352.8 47.8l.2 1.7M351.3 49l1.5.5M348.5 45.3l.3-.5.5-.3.2.3.3.5v.5l-.5.2-.5-.2-.3-.5zM348 45.3l1.5-1.3-1.5-.5 1.5-.2-1-1.5-.5 1.5-.2-1.5-1.3 1.2 1.3.5-1.3.3 1 1.2.5-1.5v1.8z"/>
  <path class="st4" d="M342.5 48.3l-.5-1-.2-.8v-1l.2-.5.3-.7.7-.8.8-.5 1-.2-.5-.8-.3-.7v-1.5l.8-1 .7-.8.8-.2 1-.5h-.3l-.2-.3-.3-.5.5-1.2.8-1.8 1-1.5.5.5.7 1.3.8 1.5.2 1.2v.5l-.5.3 1 .5 1 .5.5 1 .3 1 .2.7-.2.5-.3.8-.5.5 1 .2.8.8.7.7.3.8-.3 1.7-.2.8-.5.7M361.5 48.5l-1-.7-.5-.8-.2-1v-1.2l.5-.8.5-.7.5-.5 1-.3-.8-.7-.5-1V39l.5-.7.8-.8 1-.5.7-.2.5.2-.7-.7-.3-.8-.2-1 .2-1 .5-1 .8-.7 1-.5 1-.3-.3-.5-.2-.5v-.5l.2-.5.5-1 .8-1.2 1-1.5.7.7 1 1.3.8 1.5.2 1.5-.2.5-.3.2h.5l.5.3 1 .7.8 1 .5 1v.8l-.3 1-.5.7-.5.3h.5l.8.2 1 .8.7.7.3.8v1l-.3.7-1.2 1.8.7.2.8.3.5.5.5.7.2 1.3-.2 1-.5.7-1 .8M375.8 48.5h7.2v.3l.3.2-.3.5-.2.3h-7.3l-.2-.8v-.2l.2-.3h.3z"/>
  <path class="st4" d="M369.8 42l-.5.3-.5.2-.8.3-.5.2-.2.8-.3.5-.2 1.7v2.8"/>
  <path class="st4" d="M366.8 46.8l.5.5.7.5.8.5h1.2l.5-.3.5-.7.5-1.3v-1.2l-.2-1.3-.5-.7-.5-.3-.3-.5"/>
  <path class="st4" d="M370.5 48l.5.3 1-.5.5-1 .3-1v-1.3l-.3-1-.2-.7M366.5 41.8l-1 1.7-.5 1v2l.5.5.5.5.5.3M367 43.8h-.2l-.3-.5M366.8 45l-.5-.5"/>
  <path class="st4" d="M366.8 45.5l-.5.5-.3-.2v-.3M366.8 46.3l-.3.5v.2l-.7-.5M371.5 45.5l.3-.5.5-.2M371.3 46.8l.2-.3.5-.2M371 47.5l.3-.2.2.2M372 42.5l.8-1.2.7-1-.5-.3-.2.3-.5.7-.8-.5-.7-.2.2-.3.3-.5-.8-.2-.2-.5v-.5l-.5.7h-.5l-.3.5.3.5-1-.2h-1.5l-.3-.3V39l-.5-.2h-.2v.2l.7 2.8h3l1 .2 1.5.5zM379.5 49.8v3.7M379.8 52.3l.2-.8.5-.7.5-.5.8-.3h.5l.2.3.3.7-.3.5-.5.3h-.2l-.3-.3V51"/>
  <path class="st4" d="M379.8 53.3l.2-.5.5-.3.5-.5h.5l.5.3v.7h-.7v-.5M379.5 52.5l-.2-1-.3-.7-.7-.8-.8-.2-.5.2-.5.3-.2.2v1l.2.3h1.3v-.5l-.3-.5"/>
  <path class="st4" d="M379.5 53.3l-.2-.5-.3-.5-.5-.3h-.7l-.3.3-.2.2.2.5h.5v-.5M378.3 52.8l.2 1M381.3 52.8l-.3.7M378 53.8h3.5l.3.7-.3.5H378l-.2-.7.2-.3v-.2zM339.5 48.3h3.3l.2.2v.8l-.2.2h-3.3M339.5 52.3l.3-1 .5-.8 1-.5 1-.2h.2l.3.2.2.8v.5h-.2l-.8.2h-.2l-.3-.5.3-.2h.5M339.5 53.3l1-.8 1-.7h.5l.3.2v.5l-.3.3-.2.2h-.3l-.2-.2v-.3M341.3 53l-.3.3M339.8 53.5h1.2l.3.3v.7h-1.5l-.3-.2v-.5M340.8 54.5V67M339.5 39.8l-.2 33.2M338 70.5l.3-28.7M358.5 56.3l7 8.7M358.5 57.3l3 3.5 3.5 4.5M380.8 48.3l1.5-4.5 1.7-4.3 1-2 1.3-1.7 1.2-1.8 1.5-1.7.8.5.7 1 1 1.2 1.3 2 1.2 3 1.3 3.5 1.2 4.8"/>
  <path class="st4" d="M380.3 48l.5-2.5 1-2.5.7-2.5 1.3-2 1-2.2 1.5-1.8 1.2-1.7 1.5-1.5 1 .7 1 1 1.3 1.8 1.2 2.2 1.5 3 1.3 3.5 1 4.5"/>
  <path class="st4" d="M382.8 48.3l-.5-.8-.3-1v-.7l.3-.8.2-.5.8-.7.7-.5h1l-.5-.8-.5-.7v-1.5l.8-1 .7-.8.8-.2 1.2-.5h-.2l-.5-.3V37l.2-1.5 1-1.7 1-1.5 1.3 2 .5 1.5.5 1.2-.3.5-.5.5 1 .3.8.7.7.8.5 1V42l-.5.8-.5.7h1l1 .5.5.8.3.5v2l-.3.7-.5.5M397.5 48.5h-3l-.2.3h-.3v.5l.3.5h3.2M397.5 40v32.8M398.8 70.5V42M396 55.3v12.5M395.3 51l.2.3v.5l-.5.2-.5-.2v-.3l-.2-.5v-.5l.2-.2.8-.3h.5l.5.3.5.7.5 1.3.2 1"/>
  <path class="st4" d="M397.5 55.3h-1l-.7-.3-.3-.2v-.3l.3-.5.5-.2h1.2l-.2-.5-.3-.8-.5-.5h-1.2v.5l.2.3.3.2h.2v-.2 1M378.5 68.8l.5-1.5.8-1 1-1.3 1-1 1.2-.7 1.3-.5 1.2-.5h1.5l2 .2 1.5.5 1.5.8 1.5 1.2 1 1.3.8 1.5.5 1.7.2 1.8-.2 2-.5 1.5-.8 1.7-1 1.3-1.5 1-1.5 1-1.5.5-2 .2-1-.2-1.2-.3-2-.7L381 78l-1.5-1.7"/>
  <path class="st4" d="M379.8 77.3l1.5 1.5L383 80l2 .8 2 .2 2.3-.2 1.7-.5 1.5-1L394 78l1-1.2 1-1.8.5-1.7.3-2-.3-1.8-.5-2-1-1.5-1.2-1.5-1.3-1.2-1.7-.8-1.8-.7h-3.2l-1.5.2-1.3.5-1.2.8-1 .7-1 1-.8 1.3-.7 1.2M385 67.5l2.3 2.8M387.3 70.3l2.7-2M383.5 74l7.3-5.5M383.5 73.3l2.8-2.3M384.5 74.3l2.5-2M388.3 71.3l2.7-2M384.3 67.5l5.7 7.3M384 68.3l2.3 2.7M387 72l2.3 3M388.3 71.3l2 2.7"/>
  <path class="st4" d="M389 75.3V75h.3l.2.3h.3l.2-.3v-.2h.3l.2-.3V74M383 73l.3.3-.3.5v.2h.5v.5h1M383.8 68.5l.2-.2-.2-.3v-.2h.7v-.5l.5.2.3-.2M389.8 67.8l.2.2h.5l.3.3-.3.2h.8l-.3.8v.2M386 67.8l.3-.5.2-.3.5-.5h1l.5.5.3.3v1l-.3.5-.5.2-.5.3-.5-.3-.5-.2-.2-.5-.3-.5zM385.3 74.8v-.5l.2-.5.5-.3h1l.5.3.3.5.2.5-.2.5-.3.5-.5.2h-1l-.5-.2-.2-.5v-.5zM389.3 71.8v-.5l.2-.5.5-.3.5-.2.5.2.5.3.3.5v1l-.3.2-.5.5h-1l-.5-.5-.2-.2v-.5zM382.3 71v-.5l.2-.5.5-.2.5-.3.5.3.5.2.3.5v1l-.3.3-.5.2-.5.3-.5-.3-.5-.2-.2-.3V71z"/>
  <path class="st4" d="M381.3 71.3V70l.2-1 .8-1 .7-1 .8-.7 1-.5 1.2-.3 1-.2 1.3.2 1 .3 1 .5 1 .7.7 1 .5 1 .3 1 .2 1.3-.2 1.2-.3 1-.5 1-.7 1-1 .8-1 .5-1 .2-1.3.3-1-.3-1.2-.2-1-.5-.8-.8-.7-1-.8-1-.2-1v-1.2z"/>
  <path class="st4" d="M334.8 56.5V53l.5-3.2 1-3.3 1-3 1.5-3 1.5-2.7 2-2.5 2.2-2.3 2.3-2.2 2.7-2 2.8-1.5 3-1.5 3-1.3 3.2-.7 3.3-.5 3.5-.3 3.5.3 3.2.5 3.3.7 3 1.3 3 1.5 2.7 1.5 2.8 2L392 33l2.3 2.3 2 2.7 1.7 2.8 1.3 2.7 1.2 3.3.8 3 .5 3.5.2 3.2-.2 3.5-.5 3.3-.8 3.2-1.2 3-1.3 3-1.7 2.8-2 2.5-2.3 2.5-2.2 2.2-2.5 1.8-3 1.7-2.8 1.5-3.2 1-3.3.8-3.2.5-3.5.2-3.3-.2-3.5-.5-3.2-.8-3-1.2-3-1.3-2.8-1.7-2.5-2-2.5-2-2.2-2.5-1.8-2.5-1.7-2.8-1.5-3-1-3-1-3.2-.5-3.3v-3.5z"/>
  <path class="st4" d="M323 56.5l.3-4.7.7-4.5 1-4.3 1.5-4.2 2-3.8 2.3-3.7 2.5-3.5 3-3.3 3.2-3L343 19l3.8-2.2 3.7-2 4.3-1.5 4.2-1 4.5-.8 4.8-.2 4.5.2 4.5.8 4.2 1 4.3 1.7 4 1.8 3.7 2.2 3.5 2.8 3 2.7 3 3.3 2.8 3.5L408 35l1.8 4 1.5 4 1.2 4.5.5 4.5.3 4.5V61l-.8 4.5-1.2 4.5-1.5 4-1.8 4-2.2 3.8-2.8 3.5-2.7 3.2-3.3 2.8-3.5 2.7-3.7 2.3-4 1.7-4 1.5-4.5 1.3-4.5.7h-9l-4.5-.7-4.5-1.3-4-1.5-4-1.7L343 94l-3.5-2.7-3.2-3-2.8-3-2.7-3.5-2.3-3.8-2-4-1.5-4.2-1-4.3-.7-4.5-.3-4.5z"/>
  <path class="st4" d="M324 56.5l.3-4.5.5-4.5 1.2-4.2 1.5-4 1.8-4 2.2-3.5 2.5-3.5 3-3 3-3 3.5-2.5 3.5-2.3 4-1.7 4-1.5 4.3-1.3 4.5-.5 4.5-.2 4.5.2 4.2.8 4.3 1 4.2 1.5 3.8 1.7 3.7 2.3 3.3 2.5 3.2 3 2.8 3 2.7 3.5 2 3.7 2 3.8 1.5 4 1 4.2.8 4.5.2 4.5-.2 4.5-.8 4.5-1 4.3-1.5 4-1.7 3.7-2.3 3.8-2.5 3.5-3 3-3 3-3.5 2.5-3.7 2.2-3.8 1.8-4 1.5-4.2 1-4.5.7-4.5.3-4.5-.3-4.5-.7-4.3-1-4-1.5-3.7-2-3.8-2-3.5-2.8-3-2.7-3-3.3-2.5-3.2-2.2-3.8-1.8-3.7-1.5-4.3-1.2-4.2-.5-4.3-.3-4.5z"/>
  <path class="st4" d="M325 56.5l.3-4.5.7-4.2 1-4.3 1.5-3.7 1.8-3.8 2.2-3.7L335 29l2.8-3 3-2.7 3.2-2.5 3.5-2.3 4-1.7 3.8-1.5 4.2-1 4.3-.8 4.5-.2 4.2.2 4.3.8 4.2 1 4 1.5 3.8 1.7 3.5 2.3 3.5 2.5 3 2.7 2.7 3 2.5 3.5 2.3 3.5 1.7 3.8 1.5 4 1 4 .8 4.2v9l-.8 4.3-1 4-1.5 4-1.7 3.7-2.3 3.5-2.5 3.5-2.7 3-3 2.8-3.5 2.5-3.5 2.2-3.8 1.8-4 1.5-4 1-4.2.7h-9l-4.3-.7-4-1-4-1.5-3.7-1.8-3.8-2.2-3.2-2.5-3-2.8-2.8-3-2.5-3.5-2.2-3.5-1.8-3.7-1.5-4-1-4-.7-4.5-.3-4.3z"/>
  <path class="st4" d="M333.8 56.5l.2-3.5.5-3.5.8-3.2 1.2-3 1.5-3 1.8-3 2-2.5 2-2.5 2.5-2.3 2.7-2 2.8-1.5 3-1.5 3.2-1.2 3.3-.8 3.5-.5 3.5-.2 3.5.2 3.5.5 3.2.8 3.3 1.2 3 1.5 2.7 1.8 2.8 1.7 2.5 2.3 2.2 2.5 2 2.7 1.8 2.8 1.2 3 1.3 3.2.7 3.3.5 3.2.3 3.5V60l-.8 3.5-.7 3.3L400 70l-1.2 3-1.8 2.8-2 2.7-2.2 2.3-2.5 2.2-2.8 2-2.7 1.8-3 1.5-3.3 1-3.2 1-3.5.5h-7l-3.5-.5-3.3-1-3-1-3.2-1.5L349 85l-2.7-2-2.3-2.2-2.2-2.5-2-2.5L338 73l-1.5-3-1.2-3.2-.8-3.3-.5-3.5-.2-3.5z"/>
  <path class="st4" d="M332.8 56.5l.2-3.5.5-3.5.8-3.5 1.2-3.2 1.5-3 1.8-3 2-2.8 2.5-2.5 2.5-2.2 2.7-2 2.8-1.8 3.2-1.5 3.3-1.2 3.2-.8 3.8-.5 3.5-.2 3.7.2 3.5.5 3.3.8L382 24l3.3 1.5 3 1.8 2.7 2 2.5 2.2 2.3 2.5 2 2.8 1.7 3 1.5 3 1.3 3.2.7 3.5.8 3.5v7.3l-.5 3.5-1 3.2-1.3 3.3-1.5 3.2-1.7 2.8-2 2.7-2.3 2.5-2.5 2.3-2.7 2-3 2-3 1.2-3.3 1.3-3.5 1-3.5.5-3.7.2-3.5-.2-3.5-.5-3.5-1-3.3-1.3-3-1.5-3-1.7-2.7-2-2.5-2.3L341 79l-2.2-2.7-1.8-3-1.5-3-1.2-3.3-.8-3.2-.5-3.5-.2-3.8z"/>
  <path class="st4" d="M355.8 30.3l-.3-.5v-.3l.3-.2.5-.3.2-.2.5.2.3.3.2.2.3.3-.3.5.5.2.5.5v.5l-.2.3-.3.2-.2.3h-.8l-.2-.3-.5.3h-1l-.5-.3v-1.2l.2-.3.5-.2"/>
  <path class="st4" d="M356.5 27.8v.2l.3.3.7.2.5.3.3.7.2.5.3.3.2.2V32l.3.3M356.5 27.8v.2l-.2.3-.5.2-.5.3-.3.7-.2.5-.3.3-.2.5-.3.2.3.8-.3.2-.2.3M354 32.3h.3l.2.2.3.3.5.2h1l.2-.2 1 .2h.5l.3-.2.7-.5M380 30.3v-.8l.3-.5h.5l.2-.2.5.2.3.3.2.2v.8l.3.2.5.8v.2l-.3.5-.2.3-.5.2h-.3l-.5-.2-.2-.3-.3.3h-.7l-.5-.3-.3-.2V31l.3-.2.2-.5h.5"/>
  <path class="st4" d="M381 27.8l.3.2v.3l.7.2.5.5v.8l.3.5.5.2v.3l.2.5-.2.7v.3l.2.2M381 27.8v.2l-.2.3h-.5l-.5.5-.3.7-.2.5-.5.3-.3.2v.3l-.2.7v.5h-.3M378.3 32h.2l.3.3v.2l.5.3.5.2h.5l.5-.2.7.2h1l.8-.5M378.3 80l.2 1.5h2l9.8.3M364.5 81.3h7M349.5 84l37.3.3M357.8 20.8l.2.2h.3l.5-.5.2-.2v-.5l-.2-.5-.5-.3-.8-.2-.5-.3-.2-.5-.3-.2v-.5l.3-.5.2-.5.5-.3h.8l.2-.2h.3l.5 1-.8-.3h-.5l-.5.3v.7l.5.5.8.3 1 .7.2.8v1l-.5.5h-.5l-1 .2h-.5v.3l-.5-1.5.8.5zM360 15.5l3.5-.7.3 1.2-.8-.5-.5.3.8 4 .2.5-1.2.2v-.7l-.8-4-.7.2-.3.5-.5-1zM364.8 14.8l1-.3L367 18l.8-2.5v-.7l-.3-.3h1L367 20l-2-5-.2-.2zM369.8 14.5v.3l-.5 4.7v.3l.2.2 1 .3.8-.3.2-.2.5-.3.5-1.2v-2.8l-.5-.5-.5-.2-.5-.3-.7-.2-.5.2z"/>
  <path class="st4" d="M370.8 15.3l-.5 4.2h.7l.3-.2.2-.5.3-1.5V16l-.3-.5-.2-.2h-.5zM374 15h1l-.2.3-.8 4.7.3.3H373l.8-2.8.2-2.5zM377.8 16.3l.3.3.3.3-.3 1-.3 1.3-.5.8h-.6v-.3l-.3-.3-.3-.3.3-1 .3-1.3.5-.8h.6v.3zm0-1l.3.3.5.3.5.5v1.3l-.5 2-.3.5-.5.5-.5.3h-.8l-.5-.3-.5-.8v-1.3l.3-1.8.5-.5.3-.5.8-.3.4-.2zM380.3 16.3l.2.2-.7 2.5-.8 2 .8.3.5-1.5.2-.3h.3l.2.3.3.2-.3.3v1.2l.5.8v-1l.3-1V20l-.3-.2.8-.5.2-.5.3-1-.3-.8-.5-.2-1.7-.5z"/>
  <path class="st4" d="M381.3 17l-.5 1.8.5.5.2-.3.5-.7v-.8l-.5-.5h-.2zM384 17.5l1 .3-.7 3.7 2.5-2.5v-.2l1 .5-4.3 3.7h-.2l.7-3.7v-1.8zM388.8 19.5v.8l-2 2.5-1 1.2.2.5.5.3 2.3-3.3.2.8v1l1.8-.8-2.3 3.3.5.5h.3l.2-.8 2.5-3.7-.5-.3-2 1v-2.2l-.7-.8zM392 25.5v-.2l.3-.5h.5l.2-.3.5.3h.3l.2.5v.7l-.2.3-.3.2h-.7l-.5-.2-.3-.3v-.5zM392.8 29l1-.2 1.5-1.3 1.5-1 .2-.7v-.3l.5.8-.5 2.2 2.3-.5.2.5-3 3-.2.5-.3.5-.5-.7 2.8-2.8-2 .3.5-1.8-1.3.8-1.7 1.7-1-1zM400.3 29.5l.5.5-2 3v.3l3-1 .2-.5.5.7-5.2 1.5 1.7-2.5 1.3-2zM399 36l.8-.2 3-2 .5-.5.7 1.2.3.8-.3.7-.5.5-.5.3h-1l-.7.7-1 1.3v-1.3l1-1h.2l-.2-.2V36h-.3l-1.2.8-.3.2-.5-1z"/>
  <path class="st4" d="M401.8 35.5l1.7-1 .3.3-.3.7-.5.3-.5.2h-.5l-.2-.5zM402 41.5l1-.5-.7-.2-.3-.5v-.8l.5-.2 1.8-1h.5l.5.2.2.5v.8l1-.5-.2-.8V38l-.3-.2-.5-.3-.5-.2h-.7l-1.5.7-1.3.8-.5.7v1l.5.5.5.5zM402 42.3l2-.8 2.3-.7.5-.8.5 1-2.3 1-2.5 1.3-.5-1zM402.8 44h5.5v.3l-3.8 2.7-.7.8-.3-1 1-.3.5-.7v-.5l-.2-.5h-1l-.8.5-.2-1.3z"/>
  <path class="st4" d="M405.5 44.8l.3.7 1.2-.7h-1.5zM404 48.3h1l3.8-.8.2-.2.3 1-3.5 3 3.5-.8.2-.2V50l.3 1-5.3 1v-.5l3.3-2.7-1.3.2-1.7.3-.5.5-.3-1.5zM404.5 52.8V54l.8-.2 1 .2.2.3v.7l-1 .5h-.7v1l.5-.2 4.7-1.8v-.2l-5.5-1.5z"/>
  <path class="st4" d="M407 54.3l.3.7 1.2-.5-1.5-.2zM329.8 69l-.3.5v.5l.3 1.3.2 1 .8 1.7.7 1.3V73l-.5-.2.8-.5.5-.3v-1.2l-.3-.5-.2 1-.3.2h-.7l-.5-.2v-1.5l.2-.3.3-.2.5-.3.7.3.5.2.3.3.5.5.5 1.2V73l-.3 1.5-.5-.7-.7-.5.7 1.2.3 1.3v1.7l-1-.2.5.5.5.7.7 1.3.5.7.5.5.8.5h1.7l.5-.5.5-.7.3-1v-1l-.3-.8-.7-.7-.8-.3h-.5l-.5.3-.2.5-.3.2v.8l.3.5.2.2.5.3.5-.3.3-.2.2-.8-.5.3-.5.2-.2-.2-.3-.5.3-.5h1l.2.2.5 1v1.3l-.5.5-.5.5h-1.2l-.3-.3-.2-.5-.8-1.2-.2-.8v-2l.2-1 1-1.2h-.7l-.5.5v-2.5l-.5-1.5-1-1.3-.5-.2-.5-.3.5-.5v-.5l.2-.2-.2-.8-.3-.5-.5-.2-.5-.3.5.5v1.5l-.2.3-.5.5h-.5l-.5-.3-.3-.5-.2-.2.2-1 .5-.8.3-.7v-1l-.3-1-.2-.3h-1l.7.5.3.5v.5l-.3.8-.5.7-.2.8-.3.7.3.8.2.5.3.5.7.2M339.8 87l5-2.7v.2l-2 4.5v.5l-.8-.5.5-.7.3-.8-.5-.7-.5.2-1 .8v.2l-1-1z"/>
  <path class="st4" d="M342.8 86.3l.5.5.5-1.3-1 .8zM343.8 90l.7-.5 2-3.2v-.5l1 .5-.5 4.2 2-2.7v-.5l.8.5-3 4.5-.3-.3.3-4.5-1.8 2.3-.2 1-1-.8zM348.5 93.5l.8-.7L351 89v-.5l.8.5.2 4.3 1.5-3v-.5l.8.5L352 95h-.5l-.2-4.5L350 93l-.2 1-1.3-.5zM355.8 92.5l.5-.5.2-.2h.3l.2.2.3.3v.7l-.8 1.8-.2.7h-1v-1.2l.5-1.8z"/>
  <path class="st4" d="M355 92.5l.3-.7.5-.5.7-.3h.5l.5.5.5.5v1.5l-.5 1.5-.5.8-.5.5-.7.2h-.5l-.5-.5-.5-.5V94l.7-1.5zM359.5 95v-.5l.3-.2.2-.3.5-.2.3.2.5.3.2.2v.8l-.2.5h-.5l-.3.2-.5-.2h-.2l-.3-.5V95zM363 98.3l.5-1.5.3-1.5.2-1.5v-.5l-.2-.5h.7l1.3 2 1.2-2 .5.2-.2 4.8v.2l.2.5-1-.2.5-4-1.2 1.5-1-1.5-.3 2.5-.2 1v.5H363zM371.5 92.8h-1.2l-.8.2-.2.5-.5.8v2.2l.2.8.5.5.5.5.5.2h.8l.5-.2-.3-1.5v.5l-.5.2-.5.3-.2-.3-.3-.2-.2-.5V94l.2-.2.3-.3h.7l.5.8v-1.5zM375.5 92.3h-1.2l-.5.2-.5.5-.3.8v.7l.3 1.8.2.7.5.5.5.3.5.2h.8l.5-.5-.3-1.2-.2.5-.3.2-.5.3-.2-.3-.5-.2v-.3l-.3-2.2v-.5l.3-.5.2-.3h.8l.5.5-.3-1.2zM376.8 92l1.2-.2.8 4.2.2.3h.8l.2-.5.5-.8.3 1.3-.3.2-1 .3-1.5.5v-1.5l-.2-1.8-.5-1.7-.5-.3zM380.3 91l.7-.5 1.5 1.5.3-1.2-.3-.5V90l.8-.2-.3 2.7 2.3 2.3-.8.5-1.5-1.5-.2.7v.5l.2.8-.7.2.2-2.7-2.2-2.3zM384.3 89l.7-.5 1.8 1.3v-1l-.3-.8v-.2l.8-.3.2 2.8 2.5 2-1 .5-1.5-1.3v1.3l.3.7-.8.5-.2-3-2.5-2zM388 87l.8-.5 1.2 2.3 1.8 2.2-1 .5-1.3-2.2L388 87zM390.3 85.8l.7-.8 1.5 2.3 1.8 1.7-.8 1-1.5-2.2-1.7-2zM326.5 55.8l.3-.3 5.2-1.2V54l-5-2-.2-.2V53l.5-.2 3 1.2-3 .8h-.8v1zM326.8 51h.5l2.5.3 2.2.7.3-1.2h-1.8l-1.7-.5 4-1.5v-.5l-3-.5-2-.5-.3 1h1l1.5.2 1.3.3L327 50l-.2 1zM327.8 46.3l.2-1.3 2.8.8 2.5.5-.3 1-.5-.3-2-.5-1.7-.5h-.5l-.5.3zM328.5 44h5.5l-4-3-.2-.5-.5.8.5.2 2.7 2-2.5-.2h-.7l-.5-.3-.3 1zM330.3 39.5l1.2-2.7.8.2-.3.3-.7 1.2v.3l.7.2 1 .3.3-.5.5.2-.3.8.8.5.7.2.5-1 .3-.7.7.5-1.5 2.5-.2-.3-2-1.2-2.3-.8h-.2zM332.3 35.5l.7-1.5.5-.2.5-.3h.8l.5.3.5.5.2.5v.2h.8l.7.3 1.3.2-.8.5h-.5l-.5-.2h-1.2l-.3.2.8.8 1.2.5-.5.7-2.2-1.5-1.8-1h-.7z"/>
  <path class="st4" d="M333.5 34.8l.8.5.7.5.3-.3.2-.2-.2-.5-.5-.3-.5-.2h-.5l-.3.5zM336.5 29.5l1 .5h-.5l-.7.8v.2l.2.5.5.3.8-.3.5-.2h.7l.8.2.5.5v.5l.2.5-.2.8-.8.7-.5.3-1-.8h.8l.7-.5V33l-.2-.5-.5-.2h-.5l-1.5.5-.8-.3-.5-.5-.2-.7.2-.8 1-1zM337.8 28.3l.5-.8.2.3 3.3 3.2h.5l-.8 1-2-2.2-1.7-1.5zM339.3 26.5l2.5-2 .5.8h-.5l-.5.2 2.7 3.3.3.2-1 1-.3-.5-2.5-3.2-.2.2-.5.5v.5l-.5-1zM348.5 19.5l.8 1-.5-.2h-.5l-.3.2-.2.5v.3l.5.7h.7l1 .3.5.2.3.3.2.5v.7l-.2.5-.5.5-1 .3-.5.2-.8-1.2.8.5 1-.3.2-.5v-.5l-.5-.5-.5-.2-1.5-.3-.5-.2-.2-.8v-.7l.5-.5 1.2-.8zM345.5 26l.8-.5h.2l.8.8.2.5.8-.8-1.3-.7-1.7-1-1.5-1.3h-.3l1.8 5.3 1-.8-.5-.2-.3-.5V26z"/>
  <path class="st4" d="M345 25.5l.5-.5-1-.7.5 1.2zM352 20.3l.3-.3v-.2l.5-.3.2-.2.5.2.3.3.2.2v.8l-.2.2-.3.3h-.7l-.5-.3v-.2l-.3-.5zM373.3 64.3l2.7-4.8M367.3 51.8h.2l-.2.2v-.2zM368.3 52v-.2l.2.2h-.2zM369.3 51.8v-.3.3zM406 69.8l.3.5.2.5-.2 1.2-.3 1-.7 1.8-.8 1.2v-2.2l.5-.3-.7-.5-.5-.2v-1.3l.2-.5.3 1 .2.3h.8l.5-.3v-1.5l-.3-.2-.2-.3-.5-.2-.8.2-.5.3-.2.2-.5.5-.5 1.3v1.5l.2 1.5.5-.8.8-.5-.8 1.3-.2 1.2V78h1l-.5.5-.5.5-.8 1.5-.5.8-.5.5-.7.5h-1.8l-.5-.5-.5-.8-.2-1v-1l.2-1 .8-.5.7-.2h.5l.5.2.3.3.2.5v.7l-.2.3-.3.5h-1l-.2-.3-.3-.7.5.2h.8v-1h-1l-.3.3-.5.7v1.5l.5.5.3.5h1.5l.2-.2.3-.5.7-1.3.3-.7v-2l-.3-1-1-1.3h.8l.5.5v-2.5l.5-1.5 1-1.2.5-.3.5-.2-.5-.5v-.5l-.3-.3.3-.7.2-.5.5-.3.5-.2-.5.5v1.5l.3.2.5.3.5.2.5-.2.2-.5.3-.3-.3-1-.5-.7-.2-.8v-1l.2-1 .3-.2h1l-.8.5-.2.5v.5l.2.7.5.8.3.5.2 1-.2.7-.3.5-.5.5-.5.3M386.8 67.3h.5v.2l.2-.5.3.3v.2h.2l.3-.2v1h-.5l-.3-.3v.3h-.5v-.8M386 74.3h.3l.2.2.3-.5h.2v.5l.3-.2.2.5v.5h-.7V75v.3h-.8v-.8M391 71l.3.3v.2l-.3 1-.2-.7h-.3l-.2-.3V71l.2-.2.3.5.5.5M391 72.3V72M390.8 72v.3M390 71.3v.2h.3M390 71.8h.3M383.8 70.3l.2.2.3.3-.3 1-.2-.8h-.3l-.2-.2v-.3l-.3-.2.3-.3.5.5.2.5M384 71.5l-.2-.2M383.8 71.3l-.3.2M382.8 70.5l.2.3M382.8 71h.5M365.3 65.3l.2-.3"/>
  <path fill="#af1a2e" d="M0 0h309.3v113H0V0z"/>
  <path class="st1" d="M231.5 61V49.5H228V61l-.3 1.3-.8 1-.8.8-1.5.3-1.3-.3-.8-.8-.8-1-.3-1.3V49.5h-3.5V61l.3 1.5.3 1 .8 1.3.8.8 1 .8 1 .5 1.3.5h2.8l1.3-.5 1-.5 1-.8.8-.8.5-1.3.5-1 .2-1.5zm17.3 6.3l-4-7.8 1.2-.5 1-1 .8-1.5.2-1.5v-1.3l-.3-1-.5-1-.8-.8-.8-.5-1-.8-1.3-.3H235v17.8h3.5v-7h2.5l3.5 7h4.3v.2zM244.5 55l-.3.8-.5.8-.7.4-1 .3h-3.3v-4.8h3.3l1 .3.8.5.5.8.2.9zm19.5 6.8h-3.5l-.3 1-.8.8-.8.5-1.3.3-1.3-.3-1-.8-.3-.5-.3-1-.3-3.5.3-3.3.3-1 .3-.5 1-.8 1.3-.3 1.3.3.8.5.8.8.3 1h3.5l-.3-1.3-.5-1.3-.8-1-.8-.8-1-.5-1-.5-1-.3H256l-1 .7-1.3.5-1 .8-.5.8-.5.8-.5 1.8-.3 1.8v4.3l.3 1.8.5 1.8.5.8.5.5 1 1 1.3.5 1.3.5h2.6l1-.3 1-.5 1-.5.8-1 .8-.8.5-1.3v-1.5zm6.8 5.5V49.5h-3.5v17.8h3.5zm18.2 0l-6.5-17.8h-2.8l-6.5 17.8h3.5L278 64h6.3l1 3.3h3.7zm-5.7-6H279l2.3-6.5 2 6.5zm-69 6V49.5H211l-4.8 9.5-4.8-9.5h-3.3v17.8h3.5V57l3.3 6.8h2.5l3.3-6.8v10.3h3.6zM111.8 34.5V22.8H110v11.8l-.3 1v.8l-.5.8-.5.8-.5.5-.8.3-1 .3h-1.8l-.8-.3-.8-.3-.8-.5-.2-1-.3-.8-.3-.8V22.8h-2v11.8l.3 1.3.3 1.1.5 1 .8.8 1 .8 1 .5 1.3.5h2.6l1-.5 1.3-.5.8-.8.8-.8.5-1 .5-1.3v-1.2h-.3zm17.7 5.8V22.8h-1.8v14l-9.3-14h-1.8v17.5h1.8v-14l9.3 14h1.8zm7 0V22.8h-1.8v17.5h1.8zm15.8-17.5h-2L145.8 37l-4.5-14.3h-2l5.8 17.5h1.5l5.7-17.4zM166 40.3v-1.5h-9v-6.5h7.5v-1.5H157v-6.3h9v-1.8h-11v17.5h11v.1zm16 0l-4-7.8 1.5-.8 1.3-1 .8-1.3.3-.8v-2l-.5-1-.3-1-.8-.5-.8-.8-.8-.3-1-.3-1.3-.3h-6.8v17.5h2v-7.8h4.3l4 7.8h2.1v.4zm-2-12.5l-.5 1.5-.5 1-1.3.5-1.3.3h-4.8v-6.5h4.8l1.3.3 1.3.5.5 1 .5 1.4zm16.5 7.7v-1l-.3-1-.5-.8-.7-.7-1.3-.8-2-.5-1.8-.3-1.3-.3-1.3-.8-.5-.8-.3-1.3.3-1.3.8-1 1.3-.8 1.5-.3 1.3.3 1 .3 1 .5.8.5 1.3-1.3-1-.8-1.3-.5-1.5-.5h-2.8l-1 .3-1 .5-.8.5-.8.8-.5.8-.3 1v2.3l.3.8.5.8.5.8 1.5.8 1.8.5 2 .3 1.5.3.8.8.8.8.3 1.3-.3.8v.5l-.5.5-.5.5-1.3.8h-3.1l-1.3-.3-1.3-.8-1-.8-1.3 1.3 1.3 1 1.5.8 1.8.5h3.1l1.3-.3 1-.5 1-.5.5-.8.5-1 .5-.8v-1.1h-.2zm5.8 4.8V22.8h-1.8v17.5h1.8zm17.2-8.8v-3.8L219 26l-.5-.8-.8-.8-.8-.8-1-.5-1.3-.3-1.3-.3h-6V40h8.7l1-.5.8-.8.8-.8.5-.8.5-2v-3.6h-.1zm-1.7 0l-.3 3.3-.3 1.5-.8 1.3-.8.5-.8.5-1 .3H209V24.5h4.8l1 .3.8.5.8.5.8 1.3.3 1.3.3 3.1zm18.2 8.8l-6.5-17.5H228l-6.5 17.5h2l1.5-3.8h7.5l1.5 3.8h2zm-4-5.5h-6.5l3.3-9.3 3.2 9.3zm19-3.3v-2l-.3-1.8-.5-1.8-.5-.8-.5-.8-1-.8-1-.5H246l-1.3-.3h-6v17.5h7.3l1.3-.3 1-.5 1-.8.5-.8.5-.8.5-2 .3-2v-1.5h-.1zm-2 0v3.3l-.5 1.5-.5 1.3-.8.5-1 .5-.8.3h-4.8V24.5h4.8l.8.3 1 .5.8.5.5 1.3.5 1.3v3.1zm24.8 0v-2l-.3-1.8-.5-1.7-.5-.8-.5-.8-1-.8-1-.5-1.3-.3-1.3-.3h-6V40h8.6l1-.5 1-.8.5-.8.5-.8.5-2 .3-2v-1.6zm-2 0v3.3l-.5 1.5-.5 1.3-.8.4-1 .5-.8.3h-5V24.5h5l.8.3 1 .5.8.5.5 1.3.5 1.3v3.1zm17.2 8.8v-1.5h-9v-6.5h7.8v-1.5H280v-6.3h9v-1.8h-11v17.5h11v.1z"/>
</svg>
